<svg width="47" height="11" viewBox="0 0 47 11" fill="none" xmlns="http://www.w3.org/2000/svg">
    <path fill-rule="evenodd" clip-rule="evenodd" d="M5.14453 2.64978C5.74157 2.6623 6.26439 2.7497 6.72461 2.91248C7.18473 3.07525 7.5829 3.30031 7.90625 3.58826C8.22955 3.87617 8.47822 4.22678 8.65234 4.62732C8.82647 5.02797 8.91405 5.47905 8.91406 5.97986C8.91406 6.48071 8.82648 6.95711 8.65234 7.35779C8.47821 7.77081 8.22954 8.12165 7.90625 8.40955C7.5829 8.69746 7.18471 8.92257 6.72461 9.08533C6.2644 9.2481 5.74182 9.3228 5.15723 9.33533V10.35H4.39844V9.33533H4.37402C3.78954 9.33533 3.26679 9.24804 2.80664 9.08533C2.3466 8.92261 1.94833 8.70987 1.625 8.40955C1.30166 8.12161 1.05206 7.77089 0.87793 7.35779C0.703792 6.94458 0.617188 6.49323 0.617188 5.97986C0.6172 5.46653 0.703805 5.02797 0.87793 4.62732C1.05206 4.22669 1.30164 3.87622 1.625 3.58826C1.94836 3.30037 2.34653 3.07521 2.80664 2.91248C3.26674 2.74977 3.7889 2.66232 4.38574 2.64978V1.79822H5.14453V2.64978ZM4.37402 3.27576C3.36651 3.32584 2.61961 3.57597 2.12207 4.02673C1.62465 4.48999 1.376 5.14106 1.37598 5.97986C1.37598 6.81873 1.62486 7.4697 2.13477 7.93298C2.64474 8.39627 3.39139 8.65944 4.37402 8.72205V3.27576ZM5.14453 8.72205C6.1396 8.65944 6.88651 8.39627 7.39648 7.93298C7.90622 7.46972 8.15527 6.81859 8.15527 5.97986C8.15525 5.14099 7.90572 4.49 7.4082 4.02673C6.91067 3.56353 6.15195 3.31332 5.14453 3.27576V8.72205Z" fill="white"/>
    <path fill-rule="evenodd" clip-rule="evenodd" d="M15.2197 1.88513C15.8541 1.88513 16.4021 1.99862 16.8623 2.224C17.3347 2.44934 17.7204 2.76183 18.0312 3.14978C18.3422 3.53788 18.5785 3.98886 18.7402 4.48962C18.9019 5.003 18.9766 5.52933 18.9766 6.06775C18.9765 6.60603 18.9019 7.15685 18.7402 7.65759C18.5786 8.15832 18.3545 8.60916 18.0312 8.98474C17.7204 9.37276 17.3223 9.67345 16.8623 9.8988C16.4021 10.1242 15.8416 10.2377 15.2197 10.2377C14.5979 10.2376 14.038 10.1242 13.5654 9.8988C13.0929 9.67343 12.6947 9.36029 12.3838 8.98474C12.073 8.59666 11.8365 8.15831 11.6748 7.65759C11.5132 7.15686 11.4385 6.61854 11.4385 6.06775C11.4385 5.51681 11.5131 4.99048 11.6748 4.48962C11.8365 3.98886 12.0604 3.53789 12.3838 3.14978C12.7071 2.76177 13.093 2.44935 13.5654 2.224C14.038 1.99865 14.5855 1.88516 15.2197 1.88513ZM15.2197 2.5365C14.6974 2.53653 14.2371 2.63697 13.8516 2.83728C13.4662 3.03755 13.1552 3.3127 12.9189 3.63806C12.6826 3.9761 12.4957 4.35204 12.3838 4.77771C12.2718 5.20343 12.21 5.6295 12.21 6.06775C12.21 6.50595 12.2719 6.94463 12.3838 7.35779C12.4957 7.78323 12.6828 8.15837 12.9189 8.48376C13.1677 8.82178 13.4785 9.08519 13.8516 9.28552C14.2371 9.48583 14.685 9.58627 15.2197 9.5863C15.7421 9.5863 16.1906 9.48586 16.5762 9.28552C16.9616 9.0852 17.2725 8.80922 17.5088 8.48376C17.7449 8.14588 17.932 7.77071 18.0439 7.35779C18.1559 6.93211 18.2178 6.50595 18.2178 6.06775C18.2178 5.6295 18.1559 5.20343 18.0439 4.77771C17.932 4.35202 17.7451 3.97611 17.5088 3.63806C17.2601 3.3002 16.9491 3.03756 16.5762 2.83728C16.1906 2.63694 15.7421 2.5365 15.2197 2.5365Z" fill="white"/>
    <path d="M33.417 7.3822L35.9424 2.03552H36.751L33.6035 8.59705C33.4418 8.94756 33.2798 9.22291 33.1182 9.42322C32.9565 9.62349 32.8072 9.78614 32.6455 9.8988C32.4839 10.0114 32.3225 10.0868 32.1484 10.1244C31.9744 10.1619 31.8004 10.1742 31.6016 10.1742V10.1625C31.4275 10.1625 31.2654 10.1619 31.1162 10.1244C30.967 10.0993 30.8549 10.0742 30.7803 10.0492V9.37341C30.8797 9.41096 30.9921 9.44799 31.1289 9.47302C31.2656 9.49802 31.4151 9.51111 31.6016 9.51111C31.8875 9.51102 32.1241 9.42344 32.3105 9.23572C32.4971 9.06042 32.6836 8.77236 32.8701 8.39685L32.9697 8.18396L29.9971 2.03552H30.8174L33.417 7.3822Z" fill="white"/>
    <path d="M43.1318 9.08533L45.8809 2.03552H47V10.0873H46.2412V3.13806H46.2168L43.4805 10.0873H42.7588L40.0098 3.13806H39.9844V10.0873H39.2266V2.03552H40.3701L43.1318 9.08533Z" fill="white"/>
    <path fill-rule="evenodd" clip-rule="evenodd" d="M25.5312 2.03552C25.892 2.03552 26.2159 2.08574 26.502 2.18591C26.7879 2.28608 27.0367 2.43684 27.248 2.63708C27.4592 2.83726 27.6205 3.07502 27.7324 3.36267C27.8444 3.65066 27.9072 3.97692 27.9072 4.32751C27.9072 4.678 27.8443 5.016 27.7324 5.29138C27.6205 5.56677 27.4594 5.81765 27.248 6.01794C27.0367 6.21815 26.7878 6.36798 26.502 6.46814C26.2159 6.56831 25.8795 6.61853 25.5312 6.61853H22.7451V10.0619H21.9863V2.03552H25.5312ZM22.7451 5.99255H25.3691V5.97986C25.9038 5.97986 26.327 5.84227 26.6504 5.57947C26.9738 5.304 27.1484 4.89017 27.1484 4.33923C27.1483 3.78853 26.9861 3.37537 26.6504 3.09998C26.327 2.82466 25.8914 2.69958 25.3691 2.69958H22.7451V5.99255Z" fill="white"/>
</svg>
