<svg width="64" height="64" viewBox="0 0 64 64" fill="none" xmlns="http://www.w3.org/2000/svg">
<g clip-path="url(#clip0_2532_3896)">
<path d="M18 9.96994V54.0299C18.0065 54.3815 18.1056 54.7252 18.2874 55.0262C18.4691 55.3273 18.7269 55.5752 19.035 55.7448C19.343 55.9144 19.6904 55.9998 20.0419 55.9923C20.3935 55.9849 20.7369 55.8849 21.0375 55.7024L57.0575 33.6724C57.3452 33.4983 57.5832 33.2529 57.7483 32.9599C57.9134 32.6669 58.0002 32.3363 58.0002 31.9999C58.0002 31.6636 57.9134 31.333 57.7483 31.04C57.5832 30.747 57.3452 30.5016 57.0575 30.3274L21.0375 8.29744C20.7369 8.11496 20.3935 8.01496 20.0419 8.00753C19.6904 8.00009 19.343 8.08549 19.035 8.25511C18.7269 8.42472 18.4691 8.67255 18.2874 8.97362C18.1056 9.27469 18.0065 9.61835 18 9.96994Z" stroke="white" stroke-width="3" stroke-linecap="round" stroke-linejoin="round"/>
</g>
<defs>
<clipPath id="clip0_2532_3896">
<rect width="64" height="64" fill="white"/>
</clipPath>
</defs>
</svg>
