<svg width="50" height="50" viewBox="0 0 50 50" fill="none" xmlns="http://www.w3.org/2000/svg">
<path d="M25 0C11.2152 0 0 11.2152 0 25C0 38.7848 11.2152 50 25 50C38.7859 50 50 38.7848 50 25C50 11.2152 38.7859 0 25 0ZM35.8402 29.9294C38.2717 32.088 38.7772 32.8587 38.8598 32.9902C39.8674 34.588 37.7424 34.7826 37.7424 34.7826H33.2641C33.2641 34.7826 32.1739 34.7945 31.2424 34.1772C29.7239 33.1826 28.1337 31.2544 27.0163 31.5891C26.0783 31.8695 26.087 33.137 26.087 34.2206C26.087 34.6087 25.7533 34.7826 25 34.7826C24.2467 34.7826 23.9337 34.7826 23.6 34.7826C21.1467 34.7826 18.4848 33.9565 15.8294 31.1815C12.0728 27.2587 8.77828 19.3566 8.77828 19.3566C8.77828 19.3566 8.58367 18.9587 8.79562 18.7163C9.03586 18.4445 9.68914 18.4794 9.68914 18.4794L14.0315 18.4783C14.0315 18.4783 14.4402 18.5555 14.7337 18.762C14.9761 18.9315 15.1109 19.2555 15.1109 19.2555C15.1109 19.2555 15.8402 21.6641 16.7695 23.2C18.5848 26.1978 19.4294 26.2739 20.0456 25.9511C20.9456 25.4837 20.6522 22.2967 20.6522 22.2967C20.6522 22.2967 20.6924 20.9283 20.2228 20.3185C19.8609 19.8467 19.1685 19.5956 18.8663 19.5565C18.6217 19.525 19.0305 19.0967 19.5511 18.8522C20.2467 18.5424 21.1935 18.463 22.8261 18.4783C24.0967 18.4902 24.463 18.5663 24.9587 18.6805C26.4576 19.0261 26.087 19.938 26.087 23.1402C26.087 24.1663 25.9456 25.6087 26.7195 26.087C27.0533 26.2935 28.1967 26.5456 30.2315 23.2413C31.1978 21.6739 31.9663 19.0739 31.9663 19.0739C31.9663 19.0739 32.125 18.788 32.3717 18.6467C32.6239 18.5022 32.6163 18.5055 32.962 18.5055C33.3076 18.5055 36.7739 18.4783 37.5348 18.4783C38.2945 18.4783 39.0076 18.4695 39.1305 18.9152C39.3065 19.5555 38.5695 21.7489 36.7022 24.1294C33.6337 28.0359 33.2935 27.6706 35.8402 29.9294Z" fill="white"/>
</svg>
