<svg width="50" height="50" viewBox="0 0 50 50" fill="none" xmlns="http://www.w3.org/2000/svg">
<path d="M29.9484 25.1975L21.926 29.8675V20.5874L29.9484 25.1975Z" fill="white"/>
<path fill-rule="evenodd" clip-rule="evenodd" d="M24.9995 0C38.8079 0.000107972 49.9993 11.194 50 25.0005C49.9998 38.8076 38.8065 50 24.9995 50C11.1927 49.9997 0.000169048 38.8074 0 25.0005C0 11.1933 11.193 0 24.9995 0ZM25.0395 14.064C22.3461 14.064 18.8134 14.1831 15.82 14.4223C12.288 14.723 10.4312 15.3219 9.95284 18.8537C9.77312 20.4702 9.65409 22.6853 9.65408 24.9599C9.65408 27.2354 9.77309 29.51 9.95284 31.0671C10.4313 34.6595 12.2881 35.1981 15.82 35.4975C18.8134 35.7969 22.3461 35.8559 25.0395 35.8559C27.7336 35.8559 31.2064 35.7969 34.2599 35.4975C37.7916 35.1975 39.5887 34.6594 40.0671 31.0671C40.307 29.5107 40.4259 27.2354 40.4259 24.9599C40.4258 22.6853 40.307 20.4709 40.0671 18.8537C39.5888 15.3213 37.7917 14.7217 34.2599 14.4223C31.2064 14.1837 27.7342 14.064 25.0395 14.064Z" fill="white"/>
</svg>
