<svg width="921" height="899" viewBox="0 0 921 899" fill="none" xmlns="http://www.w3.org/2000/svg">
<path d="M564.88 -56.4209C771.332 11.2692 921 206.728 921 436.803C920.999 722.791 689.908 955.422 405.814 955.422C241.138 955.422 94.3629 877.146 0 755.686L35.8092 704.233C118.65 820.043 253.606 895.643 405.875 895.643C657.174 895.643 861.675 689.838 861.675 436.803C861.675 226.774 720.692 49.3992 529.07 -4.84805L564.94 -56.3606L564.88 -56.4209Z" fill="white"/>
<path d="M495.154 43.9831C673.067 84.966 806.252 245.451 806.252 436.803C806.251 659.026 626.686 839.792 405.935 839.792C265.188 839.792 141.22 766.271 69.8416 655.398L107.07 601.862C165.154 707.918 277.36 780.013 405.935 780.013C593.892 780.012 746.871 626.073 746.871 436.803C746.871 265.377 621.306 122.858 457.87 97.5786L495.098 44.0434L495.154 43.9831Z" fill="white"/>
<path d="M420.942 150.636C570.966 158.547 690.618 278.821 690.618 436.864C690.617 594.905 562.87 723.504 405.875 723.504V723.564C288.35 723.564 187.251 651.532 143.821 549.046L186.306 487.959C209.41 588.481 299.045 663.725 405.875 663.725C530.135 663.725 631.232 561.953 631.233 436.864C631.233 311.774 530.136 209.998 405.875 209.998C396.598 209.998 387.439 210.593 378.458 211.724L420.942 150.636Z" fill="white"/>
</svg>
