<svg width="50" height="50" viewBox="0 0 50 50" fill="none" xmlns="http://www.w3.org/2000/svg">
<path fill-rule="evenodd" clip-rule="evenodd" d="M24.9996 0C11.1928 0 0 11.1925 0 25C0 38.8068 11.1928 50 24.9996 50C38.8072 50 50 38.8075 50 25C50 11.1932 38.8072 0 24.9996 0ZM38.0788 19.5006C37.3019 24.8243 36.4153 30.1488 35.5281 35.4732C35.1955 38.0237 33.8646 39.3558 31.0917 37.8021L22.4398 31.7018C21.22 30.7037 21.5525 29.9272 22.5502 28.9291L30.537 21.3863C32.6441 19.2783 31.6464 18.5025 29.2061 20.1659L18.2235 27.5977C16.6704 28.7069 15.0063 28.7069 13.2317 28.1519L9.46117 26.8212C7.02083 25.9342 8.90575 24.9355 10.1263 24.3812C17.003 21.4974 25.3231 17.3933 32.5323 14.6199C39.1868 12.1799 39.0772 12.8453 38.0788 19.5006Z" fill="white"/>
</svg>
